<?xml version="1.0" encoding="iso-8859-1"?>
<!-- Uploaded to: SVG Repo, www.svgrepo.com, Generator: SVG Repo Mixer Tools -->
<!DOCTYPE svg PUBLIC "-//W3C//DTD SVG 1.1//EN" "http://www.w3.org/Graphics/SVG/1.1/DTD/svg11.dtd">
<svg fill="#000000" height="800px" width="800px" version="1.1" id="Capa_1" xmlns="http://www.w3.org/2000/svg" xmlns:xlink="http://www.w3.org/1999/xlink" 
	 viewBox="0 0 297 297" xml:space="preserve">
<g>
	<path d="M221.002,99.086c-2.958,0-5.808,0.47-8.484,1.331V51.933c0-15.31-12.456-27.766-27.767-27.766
		c-2.995,0-5.878,0.482-8.582,1.364C175.025,11.263,163.057,0,148.5,0s-26.525,11.263-27.669,25.531
		c-2.704-0.881-5.587-1.364-8.582-1.364c-15.311,0-27.767,12.456-27.767,27.766v9.816c-2.676-0.861-5.526-1.331-8.484-1.331
		c-15.31,0-27.766,12.456-27.766,27.766v108.547C48.232,252.02,93.212,297,148.5,297s100.268-44.98,100.268-100.268v-69.88
		C248.768,111.542,236.312,99.086,221.002,99.086z M229.486,196.732c0,44.655-36.331,80.986-80.986,80.986
		s-80.986-36.33-80.986-80.986V88.185c0-4.678,3.806-8.484,8.484-8.484c4.678,0,8.484,3.806,8.484,8.484v52.963
		c0,5.324,4.317,9.641,9.641,9.641c5.324,0,9.641-4.317,9.641-9.641V51.933c0-4.678,3.806-8.484,8.485-8.484
		c4.678,0,8.484,3.806,8.484,8.484v65.047c0,5.324,4.317,9.641,9.641,9.641c5.324,0,9.641-4.317,9.641-9.641V27.766
		c0-4.678,3.806-8.484,8.484-8.484s8.484,3.806,8.484,8.484v89.214c0,5.324,4.317,9.641,9.641,9.641s9.641-4.317,9.641-9.641V51.933
		c0-4.678,3.806-8.484,8.484-8.484c4.678,0,8.485,3.806,8.485,8.484v106.735c0,5.324,4.317,9.641,9.641,9.641
		c5.324,0,9.641-4.317,9.641-9.641v-31.816c0-4.678,3.806-8.484,8.484-8.484c4.678,0,8.484,3.806,8.484,8.484V196.732z"/>
	<path d="M148.5,153.574c-28.684,0-52.02,23.336-52.02,52.019c0,28.684,23.336,52.02,52.02,52.02s52.02-23.336,52.02-52.02
		C200.52,176.91,177.184,153.574,148.5,153.574z M178.125,227.038l-14.565-14.564c0.164-0.358,0.313-0.724,0.452-1.096h20.62
		C183.71,217.16,181.426,222.49,178.125,227.038z M112.368,211.378h20.62c0.139,0.372,0.288,0.737,0.452,1.096l-14.565,14.564
		C115.574,222.49,113.29,217.16,112.368,211.378z M118.875,184.149l14.565,14.564c-0.164,0.358-0.313,0.724-0.452,1.095h-20.62
		C113.29,194.027,115.574,188.697,118.875,184.149z M155.38,190.533c-0.358-0.164-0.724-0.313-1.096-0.452v-20.619
		c5.781,0.922,11.112,3.206,15.66,6.507L155.38,190.533z M142.715,190.081c-0.372,0.139-0.737,0.288-1.096,0.452l-14.564-14.564
		c4.548-3.301,9.878-5.585,15.66-6.507V190.081z M141.62,220.654c0.358,0.164,0.724,0.313,1.095,0.452v20.62
		c-5.781-0.922-11.112-3.206-15.66-6.507L141.62,220.654z M154.285,221.106c0.371-0.139,0.737-0.287,1.095-0.452l14.565,14.565
		c-4.548,3.301-9.878,5.585-15.66,6.507V221.106z M164.012,199.809c-0.139-0.371-0.288-0.737-0.452-1.095l14.565-14.564
		c3.301,4.548,5.585,9.878,6.507,15.66H164.012z"/>
</g>
</svg>